# This file uses meters as units for non-parametric coordinates.

mtllib PlayerPointer.mtl
g default
v -100.000000 100.000000 100.000000
v 100.000000 100.000000 100.000000
v -100.000000 100.000000 -100.000000
v 100.000000 100.000000 -100.000000
v 0.000000 -100.000000 0.000000
vt 0.375000 0.250000
vt 0.625000 0.250000
vt 0.375000 0.500000
vt 0.625000 0.500000
vt 0.500000 0.750000
vt 0.593750 0.000000
vt 0.875000 0.250000
vt 0.125000 0.250000
vn 0.000000 -0.447214 0.894427
vn 0.000000 -0.447214 0.894427
vn 0.000000 -0.447214 0.894427
vn 0.000000 1.000000 0.000000
vn 0.000000 1.000000 0.000000
vn 0.000000 1.000000 0.000000
vn 0.000000 1.000000 0.000000
vn 0.000000 -0.447214 -0.894427
vn 0.000000 -0.447214 -0.894427
vn 0.000000 -0.447214 -0.894427
vn 0.894427 -0.447214 0.000000
vn 0.894427 -0.447214 0.000000
vn 0.894427 -0.447214 0.000000
vn -0.894427 -0.447214 0.000000
vn -0.894427 -0.447214 0.000000
vn -0.894427 -0.447214 0.000000
s off
g PlayerPointer
usemtl phong5SG
f 5/6/1 2/2/2 1/1/3
f 1/1/4 2/2/5 4/4/6 3/3/7
f 3/3/8 4/4/9 5/5/10
f 5/6/11 4/7/12 2/2/13
f 5/6/14 1/1/15 3/8/16
